#!OML:ASF F:\VICON\USERDATA\INSTALL\rory3\rory3.ASF
:FULLY-SPECIFIED
:DEGREES
65
root 0.721705 17.2435 -19.7848 -0.150791 2.41278 6.38391
lowerback 6.40203 -3.15741 -6.6668
upperback 1.24419 -4.60564 1.92953
thorax -1.60531 -2.28076 6.07871
lowerneck -14.5773 -1.11279 -9.54993
upperneck 20.9195 0.0603949 3.10045
head 8.97691 -0.400599 2.65743
rclavicle 3.68746e-014 -1.82882e-014
rhumerus -37.0637 -20.2846 -73.0972
rradius 20.1482
rwrist 18.962
rhand -12.9276 18.4307
rfingers 7.12502
rthumb 13.163 -11.1339
lclavicle 3.68746e-014 -1.82882e-014
lhumerus -22.0897 -0.570696 82.2854
lradius 35.9613
lwrist -11.3867
lhand -16.4722 21.5818
lfingers 7.12502
lthumb 9.74455 51.3363
rfemur -35.1223 1.84312 13.2469
rtibia 30.4946
rfoot -6.76832 -9.71879
rtoes -7.26335
lfemur 19.4145 -5.17581 -29.575
ltibia 11.5894
lfoot -9.27115 -2.72489
ltoes -21.743
66
root 0.697536 17.2559 -19.5698 -0.360102 2.48549 5.92523
lowerback 6.4381 -3.2019 -6.22838
upperback 1.39908 -4.63122 2.07808
thorax -1.48318 -2.30453 5.98462
lowerneck -14.8555 -1.04527 -9.62874
upperneck 20.935 0.178512 3.21435
head 9.02439 -0.338248 2.72538
rclavicle -4.6118e-014 1.59028e-015
rhumerus -36.9599 -21.0857 -72.6306
rradius 19.708
rwrist 19.4376
rhand -13.2513 18.5397
rfingers 7.12502
rthumb 12.8509 -11.0447
lclavicle -4.6118e-014 1.59028e-015
lhumerus -21.9079 -0.580062 82.3336
lradius 36.074
lwrist -11.6187
lhand -15.2778 26.1005
lfingers 7.12502
lthumb 10.8968 55.7978
rfemur -34.9253 2.14689 13.7498
rtibia 31.3753
rfoot -5.07285 -10.278
rtoes -6.57711
lfemur 18.7489 -5.43327 -29.0928
ltibia 14.4397
lfoot -8.73039 -2.94095
ltoes -23.559
67
root 0.676727 17.2708 -19.3508 -0.483548 2.51929 5.83904
lowerback 6.52829 -3.18832 -6.18371
upperback 1.32814 -4.61459 2.18873
thorax -1.6039 -2.28992 6.08463
lowerneck -14.7491 -1.04293 -9.82895
upperneck 21.0453 0.207944 3.26582
head 9.04151 -0.338388 2.78113
rclavicle -1.76918e-014 -1.43125e-014
rhumerus -37.3149 -21.052 -72.2511
rradius 19.7243
rwrist 19.1914
rhand -13.2313 18.5632
rfingers 7.12502
rthumb 12.8702 -11.02
lclavicle -1.76918e-014 -1.43125e-014
lhumerus -22.2083 -0.557415 82.5495
lradius 36.2286
lwrist -11.7274
lhand -14.7308 26.6614
lfingers 7.12502
lthumb 11.4244 56.3301
rfemur -34.8071 2.25743 13.8233
rtibia 32.1381
rfoot -3.77816 -10.5192
rtoes -5.10069
lfemur 18.0328 -5.66092 -29.0676
ltibia 17.1232
lfoot -7.80199 -3.27218
ltoes -24.9515
68
root 0.655557 17.2973 -19.1352 -0.567858 2.43417 5.55326
lowerback 6.68803 -3.16548 -5.98095
upperback 1.125 -4.57827 2.38543
thorax -1.90946 -2.25515 6.19618
lowerneck -14.4778 -1.01799 -9.87644
upperneck 21.3436 0.267867 3.07817
head 9.09297 -0.344522 2.73465
rclavicle 5.73494e-014 1.59028e-014
rhumerus -37.7799 -20.5784 -71.9083
rradius 19.7689
rwrist 18.5749
rhand -12.9859 18.7411
rfingers 7.12502
rthumb 13.1068 -10.827
lclavicle 5.73494e-014 1.59028e-014
lhumerus -22.8528 -0.437038 82.7879
lradius 36.4905
lwrist -11.9366
lhand -14.8561 26.2964
lfingers 7.12502
lthumb 11.3036 55.9718
rfemur -34.7023 2.28549 14.1818
rtibia 32.8039
rfoot -3.23546 -9.78544
rtoes -4.85284
lfemur 17.0909 -5.79261 -28.7937
ltibia 19.7386
lfoot -6.29571 -3.71533
ltoes -24.6146
69
root 0.635151 17.3146 -18.9192 -0.723898 2.26301 5.23331
lowerback 6.87762 -3.15624 -5.66161
upperback 1.01772 -4.55078 2.52336
thorax -2.14473 -2.23109 6.17842
lowerneck -14.4722 -0.949025 -9.81865
upperneck 21.6921 0.382479 2.94239
head 9.20618 -0.311639 2.69737
rclavicle -7.40473e-014 4.77083e-015
rhumerus -38.2053 -19.9372 -71.8915
rradius 20.0977
rwrist 17.758
rhand -12.991 18.2595
rfingers 7.12502
rthumb 13.1018 -11.3089
lclavicle -7.40473e-014 4.77083e-015
lhumerus -23.2468 -0.422453 82.9067
lradius 36.5772
lwrist -12.0066
lhand -15.0377 26.6143
lfingers 7.12502
lthumb 11.1284 56.2993
rfemur -34.4059 2.20579 14.6957
rtibia 33.4947
rfoot -2.82907 -8.05337
rtoes -7.86196
lfemur 16.3063 -5.67973 -28.416
ltibia 22.225
lfoot -4.45641 -4.0892
ltoes -23.9022
70
root 0.616126 17.3263 -18.6964 -0.977961 1.96423 4.82353
lowerback 6.86892 -3.0293 -5.19661
upperback 1.16298 -4.34251 2.62301
thorax -2.04642 -2.13726 5.99985
lowerneck -14.7217 -0.994381 -9.74482
upperneck 21.7891 0.341443 2.89621
head 9.28957 -0.331736 2.66719
rclavicle 9.44227e-015 3.18055e-015
rhumerus -38.3538 -20.2911 -71.5474
rradius 20.0214
rwrist 18.1207
rhand -13.1992 18.6347
rfingers 7.12502
rthumb 12.9012 -10.9465
lclavicle 9.44227e-015 3.18055e-015
lhumerus -23.1503 -0.432315 83.045
lradius 36.4211
lwrist -12.1993
lhand -14.958 26.2272
lfingers 7.12502
lthumb 11.2053 55.908
rfemur -33.9098 2.18238 15.41
rtibia 34.2383
rfoot -2.37418 -6.63054
rtoes -4.50329
lfemur 15.7691 -5.12374 -27.836
ltibia 24.6472
lfoot -2.61534 -4.52472
ltoes -24.7226
71
root 0.594787 17.3403 -18.4686 -1.22021 1.60839 4.33353
lowerback 6.77972 -2.8755 -4.78875
upperback 1.41545 -4.09827 2.80589
thorax -1.78409 -2.03286 5.92847
lowerneck -14.9846 -1.04095 -9.79836
upperneck 21.5877 0.304962 2.95712
head 9.27033 -0.339244 2.69088
rclavicle -1.03368e-014 2.8625e-014
rhumerus -38.0572 -21.9633 -70.4603
rradius 19.0326
rwrist 20.1283
rhand -13.4836 20.297
rfingers 7.12502
rthumb 12.627 -9.30134
lclavicle -1.03368e-014 2.8625e-014
lhumerus -22.8371 -0.404686 83.2757
lradius 36.1885
lwrist -12.268
lhand -15.2231 26.0035
lfingers 7.12502
lthumb 10.9496 55.698
rfemur -33.4289 2.13974 16.3
rtibia 35.0426
rfoot -2.24974 -6.18083
rtoes -3.47619
lfemur 15.1668 -4.50261 -27.1202
ltibia 26.9775
lfoot -0.450953 -5.05332
ltoes -25.4481
72
root 0.575736 17.3537 -18.2435 -1.29406 1.35855 3.87946
lowerback 6.56607 -2.79212 -4.3676
upperback 1.53279 -3.94645 2.97802
thorax -1.58083 -1.96802 5.84219
lowerneck -14.9736 -1.04667 -9.65535
upperneck 21.3508 0.30375 2.76536
head 9.18729 -0.342234 2.59641
rclavicle 9.44227e-015 1.90833e-014
rhumerus -37.9796 -22.6293 -69.9326
rradius 18.7632
rwrist 20.9215
rhand -13.5638 20.4565
rfingers 7.12502
rthumb 12.5496 -9.14663
lclavicle 9.44227e-015 1.90833e-014
lhumerus -22.9496 -0.48511 83.48
lradius 36.2463
lwrist -12.2354
lhand -15.1451 25.7218
lfingers 7.12502
lthumb 11.0248 55.4123
rfemur -33.0544 2.03231 17.1104
rtibia 35.8419
rfoot -2.46361 -6.24554
rtoes -1.51034
lfemur 14.2782 -4.05502 -26.4383
ltibia 29.2103
lfoot 2.3944 -5.653
ltoes -24.4416
73
root 0.552358 17.3731 -18.021 -1.43126 1.26085 3.5365
lowerback 6.53022 -2.73911 -4.07624
upperback 1.44166 -3.85269 3.08722
thorax -1.6798 -1.91671 5.78727
lowerneck -14.4687 -1.0021 -9.39916
upperneck 21.2085 0.304551 2.50869
head 9.04586 -0.346575 2.46078
rclavicle 5.06901e-014 -1.27222e-014
rhumerus -38.4531 -21.713 -70.1978
rradius 19.5111
rwrist 19.8951
rhand -13.3498 19.3171
rfingers 7.12502
rthumb 12.756 -10.2733
lclavicle 5.06901e-014 -1.27222e-014
lhumerus -23.7102 -0.548907 83.6494
lradius 36.6318
lwrist -12.1354
lhand -15.3023 25.3732
lfingers 7.12502
lthumb 10.8731 55.0717
rfemur -32.5103 1.91034 17.7546
rtibia 36.5495
rfoot -2.78725 -6.23879
rtoes 0.0919374
lfemur 13.2979 -3.70907 -25.8057
ltibia 31.3734
lfoot 6.12649 -6.0192
ltoes -19.1126
74
root 0.523764 17.3942 -17.801 -1.46636 1.11608 3.34266
lowerback 6.33861 -2.66529 -3.93947
upperback 1.41986 -3.7394 3.11131
thorax -1.61765 -1.86183 5.71674
lowerneck -14.4398 -1.04722 -9.32363
upperneck 21.4213 0.211516 2.55219
head 9.11948 -0.385544 2.45539
rclavicle -5.76476e-015 -2.8625e-014
rhumerus -38.6483 -22.439 -69.6243
rradius 19.2194
rwrist 20.6427
rhand -13.318 19.3836
rfingers 7.12502
rthumb 12.7867 -10.2048
lclavicle -5.76476e-015 -2.8625e-014
lhumerus -24.24 -0.559972 83.7378
lradius 37.0338
lwrist -11.8418
lhand -15.2288 25.3848
lfingers 7.12502
lthumb 10.9441 55.0796
rfemur -32.0198 2.0041 18.2069
rtibia 37.1027
rfoot -3.22494 -6.26348
rtoes 0.820992
lfemur 12.0779 -3.30647 -25.2996
ltibia 33.5756
lfoot 9.96852 -6.39251
ltoes -13.4031
75
root 0.496891 17.4195 -17.5882 -1.52569 1.01173 2.95159
lowerback 6.41562 -2.60934 -3.58077
upperback 1.37513 -3.64048 3.20924
thorax -1.73586 -1.80887 5.61642
lowerneck -14.7027 -1.06387 -9.25754
upperneck 21.738 0.199669 2.56683
head 9.27875 -0.392318 2.45391
rclavicle 8.64713e-015 9.54166e-015
rhumerus -38.8267 -21.0284 -70.3346
rradius 19.9729
rwrist 18.9691
rhand -13.1556 19.1277
rfingers 7.12502
rthumb 12.9432 -10.4509
lclavicle 8.64713e-015 9.54166e-015
lhumerus -24.6124 -0.768154 83.9105
lradius 37.2719
lwrist -11.6086
lhand -15.0094 25.9523
lfingers 7.12502
lthumb 11.1557 55.6358
rfemur -31.3533 2.02171 18.8617
rtibia 37.4429
rfoot -3.82293 -6.3224
rtoes 0.0404349
lfemur 10.9056 -3.05008 -24.6143
ltibia 35.8434
lfoot 12.9796 -7.19057
ltoes -12.3014
76
root 0.473559 17.4534 -17.3808 -1.59618 1.03972 2.39067
lowerback 6.67492 -2.64191 -3.13168
upperback 1.22673 -3.65113 3.44733
thorax -2.04553 -1.80439 5.63421
lowerneck -14.9618 -1.01944 -9.22475
upperneck 22.188 0.31248 2.45302
head 9.47861 -0.362072 2.43042
rclavicle -1.0635e-014 7.95139e-015
rhumerus -38.8639 -21.6007 -69.6048
rradius 19.4117
rwrist 20.0721
rhand -13.2052 20.2126
rfingers 7.12502
rthumb 12.8954 -9.36901
lclavicle -1.0635e-014 7.95139e-015
lhumerus -25.1601 -0.67257 84.1418
lradius 37.4837
lwrist -11.7625
lhand -14.4953 26.4017
lfingers 7.12502
lthumb 11.6515 56.0577
rfemur -30.5403 2.08134 19.6434
rtibia 37.5855
rfoot -4.17127 -6.55705
rtoes -0.558523
lfemur 9.68196 -2.99511 -23.7886
ltibia 38.1571
lfoot 15.2966 -8.00565
ltoes -12.6457
77
root 0.450265 17.4883 -17.1741 -1.6719 1.06703 1.94481
lowerback 6.67378 -2.61451 -2.77107
upperback 1.24816 -3.58571 3.59075
thorax -2.04367 -1.77396 5.5748
lowerneck -15.2998 -1.07936 -9.10557
upperneck 22.5107 0.254768 2.38365
head 9.65989 -0.395148 2.38551
rclavicle -3.51849e-014 1.27222e-014
rhumerus -38.8033 -22.0957 -69.2515
rradius 19.3075
rwrist 20.6253
rhand -13.3775 20.6259
rfingers 7.12502
rthumb 12.7293 -8.96611
lclavicle -3.51849e-014 1.27222e-014
lhumerus -25.4883 -0.783513 84.3771
lradius 37.7806
lwrist -11.6617
lhand -14.182 27.0488
lfingers 7.12502
lthumb 11.9536 56.6875
rfemur -29.6502 2.31518 20.2689
rtibia 37.5476
rfoot -4.37748 -6.95915
rtoes 0.0581288
lfemur 8.3212 -3.00759 -23.1352
ltibia 40.4975
lfoot 17.792 -8.53849
ltoes -13.1942
